<?xml version="1.0" encoding="UTF-8"?>
<svg width="34px" height="36px" viewBox="0 0 34 36" version="1.1" xmlns="http://www.w3.org/2000/svg" xmlns:xlink="http://www.w3.org/1999/xlink">
    <!-- Generator: Sketch 47.1 (45422) - http://www.bohemiancoding.com/sketch -->
    <title>calendar-exclamation2</title>
    <desc>Created with Sketch.</desc>
    <defs></defs>
    <g id="Page-1" stroke="none" stroke-width="1" fill="none" fill-rule="evenodd">
        <g id="calendar-exclamation2" fill-rule="nonzero" fill="#000000">
            <path d="M32.6610703,5.90217187 C32.1530625,5.39360156 31.5503437,5.13928125 30.8544609,5.13928125 L28.2851719,5.13928125 L28.2851719,3.21201563 C28.2851719,2.32889062 27.9703828,1.57267969 27.3414375,0.943664063 C26.7121406,0.314648437 25.9563516,0 25.0728047,0 L23.7883359,0 C22.9048594,0 22.1487891,0.314648437 21.5197734,0.943734375 C20.8905469,1.57267969 20.5760391,2.32896094 20.5760391,3.21208594 L20.5760391,5.13935156 L12.8676797,5.13935156 L12.8676797,3.21208594 C12.8676797,2.32896094 12.5530312,1.57275 11.9239453,0.943734375 C11.295,0.314648437 10.5388594,0 9.65538281,0 L8.37070313,0 C7.4874375,0 6.73122656,0.314648437 6.10214063,0.943734375 C5.47319531,1.57267969 5.15847656,2.32896094 5.15847656,3.21208594 L5.15847656,5.13935156 L2.58911719,5.13935156 C1.89302344,5.13935156 1.29086719,5.39367188 0.782296875,5.90224219 C0.273726563,6.41074219 0.01940625,7.01317969 0.01940625,7.7090625 L0.01940625,33.4049766 C0.01940625,34.1003672 0.273726563,34.7026641 0.782296875,35.2115156 C1.29079688,35.7199453 1.89295313,35.9743359 2.58911719,35.9743359 L30.8539687,35.9743359 C31.5498516,35.9743359 32.1526406,35.7200156 32.6605781,35.2115156 C33.1692187,34.702875 33.4236094,34.1002969 33.4236094,33.4049766 L33.4236094,7.70899219 C33.4235391,7.01289844 33.1694297,6.41074219 32.6610703,5.90217187 Z M23.1459609,3.21229687 C23.1459609,3.02477344 23.2056562,2.87071875 23.3259609,2.75055469 C23.4462656,2.63025 23.60025,2.56999219 23.7879141,2.56999219 L25.0723828,2.56999219 C25.2601172,2.56999219 25.4136094,2.63003906 25.5343359,2.75055469 C25.6547109,2.87092969 25.7148281,3.02498437 25.7148281,3.21229687 L25.7148281,8.99367188 C25.7148281,9.181125 25.6547109,9.33489844 25.5343359,9.45541406 C25.4135391,9.57557813 25.2601172,9.63597656 25.0723828,9.63597656 L23.7879141,9.63597656 C23.60025,9.63597656 23.4462656,9.57585938 23.3259609,9.45541406 C23.2056562,9.33482813 23.1459609,9.181125 23.1459609,8.99367188 L23.1459609,3.21229687 Z M7.72839844,3.21229687 C7.72839844,3.02477344 7.78851562,2.87071875 7.90896094,2.75055469 C8.02947656,2.63025 8.18325,2.56999219 8.37070312,2.56999219 L9.65538281,2.56999219 C9.84290625,2.56999219 9.99696094,2.63003906 10.117125,2.75055469 C10.2374297,2.87092969 10.2978281,3.02498437 10.2978281,3.21229687 L10.2978281,8.99367188 C10.2978281,9.181125 10.2377109,9.33510938 10.117125,9.45541406 C9.99667969,9.57557813 9.84290625,9.63597656 9.65538281,9.63597656 L8.37070312,9.63597656 C8.18325,9.63597656 8.02926562,9.57585938 7.90896094,9.45541406 C7.78879687,9.33482813 7.72839844,9.181125 7.72839844,8.99367188 L7.72839844,3.21229687 Z M30.8539687,33.404625 L2.58911719,33.404625 L2.58911719,12.8480625 L30.8539687,12.8480625 L30.8539687,33.404625 L30.8539687,33.404625 Z" id="Shape"></path>
            <g id="warning-sign" transform="translate(14.835938, 15.031250)" stroke="#000000">
                <path d="M1.40625096,11.4921875 C1.84187874,11.4921875 2.20449887,11.1423499 2.2411887,10.6873295 L2.80755597,1.59731151 C2.84052566,1.18610914 2.70750759,0.779610261 2.4412157,0.476003364 C2.17524931,0.172786394 1.79965521,0 1.40625096,0 C1.01284671,0 0.637252606,0.172786394 0.371262971,0.476003364 C0.104924574,0.779610261 -0.0280237411,1.18610914 0.00494595308,1.59731151 L0.571313217,10.6873295 C0.608003046,11.1423499 0.97062318,11.4921875 1.40625096,11.4921875 Z" id="Shape"></path>
                <path d="M1.44140625,14.09375 C0.878243533,14.09375 0.421875,14.5343678 0.421875,15.0781501 C0.421875,15.6218822 0.878243533,16.0625 1.44140625,16.0625 C2.00456897,16.0625 2.4609375,15.6218822 2.4609375,15.0781501 C2.4609375,14.5343678 2.00456897,14.09375 1.44140625,14.09375 Z" id="Shape"></path>
            </g>
        </g>
    </g>
</svg>