<?xml version="1.0" encoding="UTF-8"?>
<svg width="476px" height="512px" viewBox="0 0 476 512" version="1.1" xmlns="http://www.w3.org/2000/svg" xmlns:xlink="http://www.w3.org/1999/xlink">
    <!-- Generator: Sketch 47.1 (45422) - http://www.bohemiancoding.com/sketch -->
    <title>calendar-exclamation2</title>
    <desc>Created with Sketch.</desc>
    <defs></defs>
    <g id="Page-1" stroke="none" stroke-width="1" fill="none" fill-rule="evenodd">
        <g id="calendar-exclamation2" fill-rule="nonzero" fill="#000000">
            <path d="M464.513,83.942 C457.288,76.709 448.716,73.092 438.819,73.092 L402.278,73.092 L402.278,45.682 C402.278,33.122 397.801,22.367 388.856,13.421 C379.906,4.475 369.157,0 356.591,0 L338.323,0 C325.758,0 315.005,4.475 306.059,13.422 C297.11,22.367 292.637,33.123 292.637,45.683 L292.637,73.093 L183.007,73.093 L183.007,45.683 C183.007,33.123 178.532,22.368 169.585,13.422 C160.64,4.475 149.886,0 137.321,0 L119.05,0 C106.488,0 95.733,4.475 86.786,13.422 C77.841,22.367 73.365,33.123 73.365,45.683 L73.365,73.093 L36.823,73.093 C26.923,73.093 18.359,76.71 11.126,83.943 C3.893,91.175 0.276,99.743 0.276,109.64 L0.276,475.093 C0.276,484.983 3.893,493.549 11.126,500.786 C18.358,508.017 26.922,511.635 36.823,511.635 L438.812,511.635 C448.709,511.635 457.282,508.018 464.506,500.786 C471.74,493.552 475.358,484.982 475.358,475.093 L475.358,109.639 C475.357,99.739 471.743,91.175 464.513,83.942 Z M329.187,45.686 C329.187,43.019 330.036,40.828 331.747,39.119 C333.458,37.408 335.648,36.551 338.317,36.551 L356.585,36.551 C359.255,36.551 361.438,37.405 363.155,39.119 C364.867,40.831 365.722,43.022 365.722,45.686 L365.722,127.91 C365.722,130.576 364.867,132.763 363.155,134.477 C361.437,136.186 359.255,137.045 356.585,137.045 L338.317,137.045 C335.648,137.045 333.458,136.19 331.747,134.477 C330.036,132.762 329.187,130.576 329.187,127.91 L329.187,45.686 Z M109.915,45.686 C109.915,43.019 110.77,40.828 112.483,39.119 C114.197,37.408 116.384,36.551 119.05,36.551 L137.321,36.551 C139.988,36.551 142.179,37.405 143.888,39.119 C145.599,40.831 146.458,43.022 146.458,45.686 L146.458,127.91 C146.458,130.576 145.603,132.766 143.888,134.477 C142.175,136.186 139.988,137.045 137.321,137.045 L119.05,137.045 C116.384,137.045 114.194,136.19 112.483,134.477 C110.774,132.762 109.915,130.576 109.915,127.91 L109.915,45.686 Z M438.812,475.088 L36.823,475.088 L36.823,182.728 L438.812,182.728 L438.812,475.088 L438.812,475.088 Z" id="Shape"></path>
            <g id="warning-sign" transform="translate(211.000000, 206.000000)">
                <path d="M27.0000184,185 C35.3640718,185 42.3263783,178.181766 43.0308231,169.313549 L53.9050745,31.1311413 C54.5380927,23.1169255 51.9841458,15.1943794 46.8713414,9.27716844 C41.7647868,3.36755705 34.55338,0 27.0000184,0 C19.4466568,0 12.23525,3.36755705 7.12824905,9.27716844 C2.01455183,15.1943794 -0.538055829,23.1169255 0.0949622992,31.1311413 L10.9692138,169.313549 C11.6736585,178.181766 18.6359651,185 27.0000184,185 Z" id="Shape"></path>
                <path d="M27.5,193 C16.7287039,193 8,201.504624 8,212.000484 C8,222.495376 16.7287039,231 27.5,231 C38.2712961,231 47,222.495376 47,212.000484 C47,201.504624 38.2712961,193 27.5,193 Z" id="Shape"></path>
            </g>
        </g>
    </g>
</svg>