<?xml version="1.0" encoding="UTF-8"?>
<svg width="48px" height="50px" viewBox="0 0 48 50" version="1.1" xmlns="http://www.w3.org/2000/svg" xmlns:xlink="http://www.w3.org/1999/xlink">
    <!-- Generator: Sketch 47.1 (45422) - http://www.bohemiancoding.com/sketch -->
    <title>reload-event-data</title>
    <desc>Created with Sketch.</desc>
    <defs></defs>
    <g id="Page-1" stroke="none" stroke-width="1" fill="none" fill-rule="evenodd">
        <g id="reload-event-data" transform="translate(1.000000, 0.000000)" fill-rule="nonzero" fill="#000000">
            <path d="M16,27 C16,30.3 18.7,33 22,33 C25.3,33 28,30.3 28,27 C28,23.7 25.3,21 22,21 C18.7,21 16,23.7 16,27 Z M26,27 C26,29.2 24.2,31 22,31 C19.8,31 18,29.2 18,27 C18,24.8 19.8,23 22,23 C24.2,23 26,24.8 26,27 Z" id="Shape"></path>
            <path d="M23.5,15 L20.4,15 C19.9,15 19.5,15.3 19.4,15.8 L18.8,18.4 C18.5,18.5 18.3,18.6 18,18.7 L15.7,17.3 C15.3,17.1 14.8,17.1 14.5,17.5 L12.3,19.7 C12,20 11.9,20.5 12.1,20.9 L13.5,23.2 C13.4,23.4 13.3,23.7 13.2,24 L10.6,24.6 C10.2,24.7 9.8,25.1 9.8,25.6 L9.8,28.7 C9.8,29.2 10.1,29.6 10.6,29.7 L13.2,30.3 C13.3,30.6 13.4,30.8 13.5,31.1 L12.1,33.4 C11.9,33.8 11.9,34.3 12.3,34.6 L14.5,36.8 C14.8,37.1 15.3,37.2 15.7,37 L18,35.6 C18.2,35.7 18.5,35.8 18.8,35.9 L19.4,38.5 C19.5,38.9 19.9,39.3 20.4,39.3 L23.5,39.3 C24,39.3 24.4,39 24.5,38.5 L25.1,35.9 C25.4,35.8 25.6,35.7 25.9,35.6 L28.2,37 C28.6,37.2 29.1,37.2 29.4,36.8 L31.6,34.6 C31.9,34.3 32,33.8 31.8,33.4 L30.4,31.1 C30.5,30.9 30.6,30.6 30.7,30.3 L33.3,29.7 C33.7,29.6 34.1,29.2 34.1,28.7 L34.1,25.6 C34.1,25.1 33.8,24.7 33.3,24.6 L30.7,24 C30.6,23.7 30.5,23.5 30.4,23.2 L31.8,20.9 C32,20.5 32,20 31.6,19.7 L29.4,17.5 C29.1,17.2 28.6,17.1 28.2,17.3 L25.9,18.7 C25.7,18.6 25.4,18.5 25.1,18.4 L24.5,15.8 C24.4,15.3 24,15 23.5,15 Z M25.5,20.7 C25.8,20.9 26.2,20.9 26.5,20.7 L28.6,19.4 L29.7,20.5 L28.4,22.6 C28.2,22.9 28.2,23.3 28.4,23.6 C28.6,24 28.8,24.5 29,25 C29.1,25.3 29.4,25.6 29.7,25.7 L32.1,26.3 L32.1,27.8 L29.7,28.4 C29.4,28.5 29.1,28.7 29,29.1 C28.9,29.6 28.7,30.1 28.4,30.5 C28.2,30.8 28.2,31.2 28.4,31.5 L29.7,33.6 L28.6,34.7 L26.5,33.4 C26.2,33.2 25.8,33.2 25.5,33.4 C25.1,33.6 24.6,33.8 24.1,34 C23.8,34.1 23.5,34.4 23.4,34.7 L22.7,37 L21.2,37 L20.6,34.6 C20.5,34.3 20.3,34 19.9,33.9 C19.4,33.8 18.9,33.6 18.5,33.3 C18.2,33.1 17.8,33.1 17.5,33.3 L15.4,34.6 L14.3,33.5 L15.6,31.4 C15.8,31.1 15.8,30.7 15.6,30.4 C15.4,30 15.2,29.5 15,29 C14.9,28.7 14.6,28.4 14.3,28.3 L12,27.7 L12,26.2 L14.4,25.6 C14.7,25.5 15,25.3 15.1,24.9 C15.2,24.4 15.4,23.9 15.7,23.5 C15.9,23.2 15.9,22.8 15.7,22.5 L14.4,20.4 L15.5,19.3 L17.6,20.6 C17.9,20.8 18.3,20.8 18.6,20.6 C19,20.4 19.5,20.2 20,20 C20.3,19.9 20.6,19.6 20.7,19.3 L21.3,16.9 L22.8,16.9 L23.4,19.3 C23.5,19.6 23.7,19.9 24.1,20 C24.5,20.2 25,20.4 25.5,20.7 Z" id="Shape"></path>
            <path d="M34.8,43.4 C34.5,43 33.8,42.9 33.4,43.2 C30,45.7 25.9,47 21.7,47 C14.6,47 8.1,43.2 4.7,37.1 L9.4,38.5 C9.9,38.7 10.5,38.4 10.6,37.8 C10.8,37.3 10.5,36.7 9.9,36.6 L3,34.6 C2.3,34.5 1.8,34.8 1.7,35.5 L1,42.6 C0.9,43.1 1.3,43.6 1.9,43.7 C1.9,43.7 2,43.7 2,43.7 C2.5,43.7 2.9,43.3 3,42.8 L3.4,38.9 C7.3,45.1 14.2,49 21.7,49 C26.3,49 30.8,47.5 34.5,44.8 C35,44.5 35.1,43.8 34.8,43.4 Z" id="Shape" stroke="#000000"></path>
            <path d="M1.2,30.3 C1.7,30.2 2.2,29.8 2.1,29.2 C2.1,28.6 2,27.9 2,27.3 C2,16.7 10.5,8 21.1,7.6 L17.7,10.4 C17.3,10.8 17.2,11.4 17.6,11.8 C17.8,12 18.1,12.2 18.4,12.2 C18.6,12.2 18.9,12.1 19,12 L24.4,7.5 C24.4,7.5 24.4,7.5 24.4,7.5 L24.5,7.4 C24.7,7.2 24.9,6.9 24.9,6.6 C24.9,6.3 24.8,6 24.5,5.8 L19,1.2 C18.6,0.8 17.9,0.9 17.6,1.3 C17.2,1.7 17.3,2.4 17.7,2.7 L21.1,5.6 C9.4,5.9 0,15.5 0,27.3 C0,28 0,28.7 0.1,29.4 C0.2,29.9 0.6,30.3 1.2,30.3 C1.2,30.3 1.2,30.3 1.2,30.3 Z" id="Shape" stroke="#000000"></path>
            <path d="M45.9,37.1 C45.7,36.6 45.2,36.3 44.6,36.5 L40.6,37.9 C42.4,34.7 43.4,31.1 43.4,27.3 C43.4,18.7 38.3,10.8 30.3,7.4 C29.8,7.2 29.2,7.4 29,7.9 C28.8,8.4 29,9 29.5,9.2 C36.7,12.3 41.4,19.4 41.4,27.3 C41.4,30.8 40.5,34.1 38.7,37.1 L38,32.5 C37.9,32 37.4,31.6 36.9,31.7 C36.4,31.8 36,32.3 36.1,32.8 L37.2,39.9 C37.4,40.5 37.8,40.8 38.5,40.7 L45.3,38.4 C45.8,38.2 46.1,37.7 45.9,37.1 Z" id="Shape" stroke="#000000"></path>
        </g>
    </g>
</svg>