<?xml version="1.0" encoding="iso-8859-1"?>
<!-- Generator: Adobe Illustrator 16.0.0, SVG Export Plug-In . SVG Version: 6.00 Build 0)  -->
<!DOCTYPE svg PUBLIC "-//W3C//DTD SVG 1.1//EN" "http://www.w3.org/Graphics/SVG/1.1/DTD/svg11.dtd">
<svg xmlns="http://www.w3.org/2000/svg" xmlns:xlink="http://www.w3.org/1999/xlink" version="1.1" id="Capa_1" x="0px" y="0px" width="512px" height="512px" viewBox="0 0 527.927 527.926" style="enable-background:new 0 0 527.927 527.926;" xml:space="preserve">
<g>
	<path d="M0,168.707v190.524c0,25.178,20.425,45.621,45.642,45.621h380.684c25.188,0,45.622-20.443,45.622-45.621v-19.967h33.153   c12.594,0,22.826-10.232,22.826-22.836V210.619c0-12.584-10.223-22.807-22.826-22.807h-33.153v-19.105   c0-25.197-20.435-45.632-45.622-45.632H45.642C20.425,123.065,0,143.51,0,168.707z M426.325,359.231H45.642V168.707h380.684   V359.231z" fill="#FFFFFF"/>
	<path d="M99.957,324.997h7.822c10.557,0,19.125-8.568,19.125-19.125v-83.825c0-10.557-8.568-19.125-19.125-19.125h-7.822   c-10.566,0-19.125,8.568-19.125,19.125v83.825C80.832,316.428,89.39,324.997,99.957,324.997z" fill="#FFFFFF"/>
	<path d="M185.445,324.997h7.822c10.557,0,19.125-8.568,19.125-19.125v-83.825c0-10.557-8.568-19.125-19.125-19.125h-7.822   c-10.557,0-19.125,8.568-19.125,19.125v83.825C166.32,316.428,174.889,324.997,185.445,324.997z" fill="#FFFFFF"/>
	<path d="M270.973,324.997h7.774c10.566,0,19.125-8.568,19.125-19.125v-83.825c0-10.557-8.559-19.125-19.125-19.125h-7.774   c-10.567,0-19.125,8.568-19.125,19.125v83.825C251.848,316.428,260.406,324.997,270.973,324.997z" fill="#FFFFFF"/>
</g>
<g>
</g>
<g>
</g>
<g>
</g>
<g>
</g>
<g>
</g>
<g>
</g>
<g>
</g>
<g>
</g>
<g>
</g>
<g>
</g>
<g>
</g>
<g>
</g>
<g>
</g>
<g>
</g>
<g>
</g>
</svg>
