<?xml version="1.0" encoding="UTF-8"?>
<svg width="29px" height="24px" viewBox="0 0 29 24" version="1.1" xmlns="http://www.w3.org/2000/svg" xmlns:xlink="http://www.w3.org/1999/xlink">
    <!-- Generator: Sketch 47.1 (45422) - http://www.bohemiancoding.com/sketch -->
    <title>back-arrow</title>
    <desc>Created with Sketch.</desc>
    <defs></defs>
    <g id="Page-1" stroke="none" stroke-width="1" fill="none" fill-rule="evenodd">
        <g id="back-arrow" fill-rule="nonzero" fill="#000000">
            <path d="M27.1811122,9.74154146 L27.2260683,9.75137561 L7.95441951,9.75137561 L14.012722,3.67972683 C14.3093854,3.38329756 14.4721171,2.98173659 14.4721171,2.56027317 C14.4721171,2.13880976 14.3093854,1.74005854 14.012722,1.44292683 L13.0700488,0.499785366 C12.7736195,0.203356098 12.3786146,0.0394536585 11.9573854,0.0394536585 C11.535922,0.0394536585 11.1406829,0.202185366 10.8442537,0.498614634 L0.459160976,10.8827707 C0.161560976,11.1803707 -0.00117073171,11.5767805 8.47032947e-22,11.998478 C-0.00117073171,12.4225171 0.161560976,12.819161 0.459160976,13.1162927 L10.8442537,23.5013854 C11.1406829,23.7975805 11.5356878,23.9605463 11.9573854,23.9605463 C12.3786146,23.9605463 12.7736195,23.7973463 13.0700488,23.5013854 L14.012722,22.5582439 C14.3093854,22.2622829 14.4721171,21.8670439 14.4721171,21.4455805 C14.4721171,21.0243512 14.3093854,20.6499512 14.012722,20.3537561 L7.88604878,14.2481561 L27.2026537,14.2481561 C28.0706341,14.2481561 28.8,13.5000585 28.8,12.6325463 L28.8,11.2986146 C28.8,10.4311024 28.0490927,9.74154146 27.1811122,9.74154146 Z" id="Shape"></path>
        </g>
    </g>
</svg>