<?xml version="1.0" encoding="UTF-8"?>
<svg width="33px" height="41px" viewBox="0 0 33 41" version="1.1" xmlns="http://www.w3.org/2000/svg" xmlns:xlink="http://www.w3.org/1999/xlink">
    <!-- Generator: Sketch 47.1 (45422) - http://www.bohemiancoding.com/sketch -->
    <title>form</title>
    <desc>Created with Sketch.</desc>
    <defs>
        <circle id="path-1" cx="8.5" cy="8.5" r="8.5"></circle>
    </defs>
    <g id="Page-1" stroke="none" stroke-width="1" fill="none" fill-rule="evenodd">
        <g id="lock-event" transform="translate(-6.000000, -2.000000)">
            <g id="form">
                <rect id="Rectangle" fill-opacity="0" fill="#D8D8D8" fill-rule="nonzero" x="0" y="0" width="44" height="44"></rect>
                <g id="Group-2" transform="translate(6.000000, 2.000000)">
                    <path d="M28,37 L28,0 L0,0 L0,37 L28,37 Z M9.81535097,18.8428667 C9.69004518,18.9900444 9.51074913,19.0780222 9.31976861,19.0850111 C9.31130745,19.0850111 9.30365211,19.0854222 9.29478804,19.0854222 C9.11307451,19.0854222 8.93740467,19.0114222 8.80847267,18.8794556 L5.70967278,15.7184222 L6.68391516,14.7247667 L9.25892883,17.3525889 L13.047112,12.8887444 L14.0882378,13.8084 L9.81535097,18.8428667 Z M14.0882378,21.3013111 L9.81535097,26.3366 C9.69004518,26.4841889 9.51074913,26.5717556 9.31976861,26.5787444 C9.31130745,26.5787444 9.30365211,26.5791556 9.29478804,26.5791556 C9.11307451,26.5791556 8.93740467,26.5051556 8.80847267,26.3736 L5.70967278,23.2121556 L6.68391516,22.2185 L9.25892883,24.8463222 L13.047112,20.3820667 L14.0882378,21.3013111 Z M15.9271304,8.89891111 L25.9914813,8.89891111 L25.9914813,10.3040889 L15.9271304,10.3040889 L15.9271304,8.89891111 Z M15.9271304,15.3922333 L25.9914813,15.3922333 L25.9914813,16.7974111 L15.9271304,16.7974111 L15.9271304,15.3922333 Z M15.9271304,21.8859667 L25.9914813,21.8859667 L25.9914813,23.2911444 L15.9271304,23.2911444 L15.9271304,21.8859667 Z M14.0882378,6.31425556 L9.81535097,11.3491333 C9.69004518,11.4963111 9.51074913,11.5838778 9.31976861,11.5912778 C9.31130745,11.5912778 9.30365211,11.5916889 9.29478804,11.5916889 C9.11307451,11.5916889 8.93740467,11.5176889 8.80847267,11.3861333 L5.70967278,8.22468889 L6.68391516,7.23103333 L9.25892883,9.85885556 L13.047112,5.39501111 L14.0882378,6.31425556 Z M3.09839698,20.8416889 L3.09839698,13.3483667 L3.09839698,5.85463333 C3.09839698,5.46654444 3.40622212,5.15204444 3.78697442,5.15204444 L11.1312631,5.15204444 L11.1312631,6.55722222 L4.47555185,6.55722222 L4.47555185,12.6457778 L11.1312631,12.6457778 L11.1312631,14.0509556 L4.47555185,14.0509556 L4.47555185,20.1395111 L11.1312631,20.1395111 L11.1312631,21.5446889 L4.47555185,21.5446889 L4.47555185,27.6332444 L11.1312631,27.6332444 L11.1312631,29.0384222 L3.78697442,29.0384222 C3.40622212,29.0384222 3.09839698,28.7239222 3.09839698,28.3358333 L3.09839698,20.8416889 Z" id="Shape" fill="#000000" fill-rule="nonzero"></path>
                    <g id="reload" transform="translate(16.000000, 24.000000)">
                        <g id="Oval">
                            <use fill="#000000" fill-rule="evenodd" xlink:href="#path-1"></use>
                            <circle stroke="#FFFFFF" stroke-width="1" cx="8.5" cy="8.5" r="8"></circle>
                        </g>
                        <path d="M8.62469795,12.9719734 C10.5461291,12.7472692 12.0860134,11.1436985 12.3051583,9.13770304 C12.592786,6.51479248 10.6400484,4.28205007 8.1922781,4.25345136 L8.1922781,3.07681858 C8.1922781,3.01145009 8.11401207,2.97672308 8.06118249,3.01757839 L5.74059453,4.79682691 C5.70146152,4.82746839 5.70146152,4.88670858 5.74059453,4.91735006 L8.06118249,6.69659858 C8.11401207,6.73745389 8.1922781,6.70068411 8.1922781,6.63735839 L8.1922781,5.46276838 C9.91217424,5.49136709 11.2896565,7.01935549 11.1722574,8.84558762 C11.0724682,10.4164741 9.84564811,11.6911596 8.34098357,11.7912551 C6.74631309,11.8974789 5.39035402,10.7085895 5.14772931,9.13566028 C5.10272634,8.84354485 4.85814498,8.63109727 4.57638725,8.63109727 C4.22614674,8.63109727 3.95221562,8.95589694 4.00700184,9.31746639 C4.3474591,11.5583799 6.32954645,13.2395756 8.62469795,12.9719734 Z" id="Shape" fill="#FFFFFF" fill-rule="nonzero"></path>
                    </g>
                </g>
            </g>
        </g>
    </g>
</svg>