<?xml version="1.0" encoding="UTF-8"?>
<svg width="64px" height="64px" viewBox="0 0 64 64" version="1.1" xmlns="http://www.w3.org/2000/svg" xmlns:xlink="http://www.w3.org/1999/xlink">
    <!-- Generator: Sketch 47.1 (45422) - http://www.bohemiancoding.com/sketch -->
    <title>square-required</title>
    <desc>Created with Sketch.</desc>
    <defs></defs>
    <g id="Page-1" stroke="none" stroke-width="1" fill="none" fill-rule="evenodd">
        <g id="square-required">
            <rect id="Rectangle-5" fill="#00C3E5" x="0" y="0" width="64" height="64"></rect>
            <path d="M34.4043321,29.9891697 C36.2815978,29.1227394 38.0721936,28.256322 39.7761733,27.3898917 C41.4801529,26.5234614 42.8375401,25.8880887 43.8483755,25.4837545 C44.8592108,25.0794204 45.667867,24.8772563 46.2743682,24.8772563 C47.2852036,24.8772563 48.1588411,25.2166031 48.8953069,25.8953069 C49.6317726,26.5740106 50,27.4187675 50,28.4296029 C50,29.0072231 49.8194964,29.6064951 49.4584838,30.2274368 C49.0974711,30.8483786 48.7148035,31.2454865 48.3104693,31.4187726 C44.5848189,32.8917041 40.4837769,33.9602855 36.0072202,34.6245487 C36.8158885,35.375455 37.8122684,36.3718349 38.9963899,37.6137184 C40.1805113,38.8556019 40.8014438,39.5198552 40.8592058,39.6064982 C41.2924209,40.2129994 41.8989131,40.9638944 42.6787004,41.8592058 C43.4584877,42.7545171 43.9999985,43.4548711 44.3032491,43.9602888 C44.6064997,44.4657065 44.7581227,45.0794188 44.7581227,45.801444 C44.7581227,46.7256364 44.4115558,47.5342926 43.7184116,48.2274368 C43.0252673,48.9205811 42.1299694,49.267148 41.032491,49.267148 C39.9350126,49.267148 38.7003679,48.415171 37.3285199,46.7111913 C35.9566718,45.0072117 34.1877365,41.9458705 32.0216606,37.5270758 C29.8267038,41.5126553 28.3537944,44.1407879 27.6028881,45.4115523 C26.8519818,46.6823168 26.1299674,47.642596 25.4368231,48.2924188 C24.7436788,48.9422415 23.949463,49.267148 23.0541516,49.267148 C21.9855542,49.267148 21.0974765,48.8989206 20.3898917,48.1624549 C19.6823069,47.4259891 19.3285199,46.6389934 19.3285199,45.801444 C19.3285199,45.0216568 19.4729227,44.4296049 19.7617329,44.0252708 C22.4187858,40.4151444 25.1913213,37.2816017 28.0794224,34.6245487 C25.6534175,34.2490956 23.4873742,33.8303272 21.5812274,33.368231 C19.6750807,32.9061349 17.6534403,32.2274413 15.5162455,31.33213 C15.1696734,31.1588439 14.8303266,30.761736 14.4981949,30.1407942 C14.1660633,29.5198525 14,28.9494611 14,28.4296029 C14,27.4187675 14.3682274,26.5740106 15.1046931,25.8953069 C15.8411589,25.2166031 16.6859158,24.8772563 17.6389892,24.8772563 C18.3321334,24.8772563 19.1985508,25.0866405 20.2382671,25.5054152 C21.2779835,25.9241898 22.59927,26.5306819 24.2021661,27.3249097 C25.8050622,28.1191375 27.6317587,29.0072153 29.6823105,29.9891697 C29.3068573,28.169666 28.9963911,26.0830443 28.7509025,23.7292419 C28.5054139,21.3754395 28.3826715,19.7653473 28.3826715,18.898917 C28.3826715,17.8303196 28.7220183,16.9133612 29.400722,16.1480144 C30.0794258,15.3826677 30.9530632,15 32.0216606,15 C33.061377,15 33.9205742,15.3826677 34.599278,16.1480144 C35.2779817,16.9133612 35.6173285,17.9314016 35.6173285,19.2021661 C35.6173285,19.5487382 35.5667875,20.2346519 35.465704,21.2599278 C35.3646204,22.2852037 35.2202175,23.5270685 35.032491,24.9855596 C34.8447644,26.4440506 34.6353802,28.111904 34.4043321,29.9891697 Z" id="*" fill="#FFFFFF"></path>
        </g>
    </g>
</svg>